<svg width="125" height="76" viewBox="0 0 125 76" fill="none" xmlns="http://www.w3.org/2000/svg">
<rect x="23" width="10" height="50" rx="5" fill="white"/>
<rect x="38" y="30" width="10" height="50" rx="5" transform="rotate(-90 38 30)" fill="white"/>
<rect x="93" width="10" height="50" rx="5" fill="white"/>
<rect x="11" y="7" width="7" height="35" rx="3.5" fill="white"/>
<rect x="108" y="7" width="7" height="35" rx="3.5" fill="white"/>
<path d="M15.72 58.504L14.04 70H8.688L7.872 66.064H7.752L6.984 70H1.728L0.048 58.504H4.704L5.136 63.616H5.28L5.952 58.504H9.96L10.584 63.616H10.752L11.232 58.504H15.72ZM16.3913 64.216C16.3913 62.104 16.8553 60.576 17.7833 59.632C18.7273 58.688 20.1913 58.216 22.1753 58.216C24.1753 58.216 25.6313 58.68 26.5433 59.608C27.4553 60.536 27.9113 62.064 27.9113 64.192C27.9113 66.304 27.4633 67.84 26.5673 68.8C25.6873 69.76 24.2313 70.24 22.1992 70.24C20.1833 70.24 18.7113 69.76 17.7833 68.8C16.8553 67.84 16.3913 66.312 16.3913 64.216ZM22.7993 62.176C22.7193 61.888 22.5113 61.744 22.1753 61.744C21.8393 61.744 21.6233 61.888 21.5273 62.176C21.4473 62.448 21.4073 63.04 21.4073 63.952V64.528C21.4073 65.552 21.4473 66.216 21.5273 66.52C21.6233 66.808 21.8393 66.952 22.1753 66.952C22.5113 66.952 22.7193 66.808 22.7993 66.52C22.8953 66.216 22.9433 65.592 22.9433 64.648V63.976C22.9433 63.048 22.8953 62.448 22.7993 62.176ZM33.9776 63.568V70H29.0336V58.504H33.3056L33.4496 59.272H33.5456C33.9296 58.92 34.3696 58.68 34.8656 58.552C35.3616 58.408 36.0896 58.336 37.0496 58.336L36.9056 62.32H35.2736C34.7936 62.32 34.4576 62.408 34.2656 62.584C34.0736 62.76 33.9776 63.088 33.9776 63.568ZM49.8639 70H44.4639L43.0719 66.232H42.9759V70H38.0559V54.616H42.9759V62.536H43.0719L44.7519 58.504H49.9599L47.2719 64.48C47.5759 65.136 48.0159 66.088 48.5919 67.336C49.1839 68.568 49.6079 69.456 49.8639 70ZM50.0241 64.216C50.0241 62.104 50.4881 60.576 51.4161 59.632C52.3601 58.688 53.8241 58.216 55.8081 58.216C57.8081 58.216 59.2641 58.68 60.1761 59.608C61.0881 60.536 61.5441 62.064 61.5441 64.192C61.5441 66.304 61.0961 67.84 60.2001 68.8C59.3201 69.76 57.8641 70.24 55.8321 70.24C53.8161 70.24 52.3441 69.76 51.4161 68.8C50.4881 67.84 50.0241 66.312 50.0241 64.216ZM56.4321 62.176C56.3521 61.888 56.1441 61.744 55.8081 61.744C55.4721 61.744 55.2561 61.888 55.1601 62.176C55.0801 62.448 55.0401 63.04 55.0401 63.952V64.528C55.0401 65.552 55.0801 66.216 55.1601 66.52C55.2561 66.808 55.4721 66.952 55.8081 66.952C56.1441 66.952 56.3521 66.808 56.4321 66.52C56.5281 66.216 56.5761 65.592 56.5761 64.648V63.976C56.5761 63.048 56.5281 62.448 56.4321 62.176ZM66.0264 70.24C63.7544 70.24 62.6184 69.152 62.6184 66.976V58.504H67.6584V66.04C67.6584 66.296 67.7704 66.424 67.9944 66.424C68.2344 66.424 68.5464 66.344 68.9304 66.184V58.504H73.9464V69.952H69.1464V69.352H69.0024C68.0744 69.944 67.0824 70.24 66.0264 70.24ZM79.7559 70.24C78.5079 70.24 77.5879 70.008 76.9959 69.544C76.4199 69.064 76.1319 68.248 76.1319 67.096V61.888H74.8599V58.648H76.3719L76.6839 56.512H81.1239V58.648H83.3079V61.888H81.0999V66.328C81.0999 66.536 81.1959 66.64 81.3879 66.64C81.4039 66.64 82.0359 66.608 83.2839 66.544L83.1399 70C81.5399 70.16 80.4119 70.24 79.7559 70.24ZM87.129 70.24C86.265 70.24 85.657 70.088 85.305 69.784C84.953 69.464 84.777 68.976 84.777 68.32C84.777 67.664 84.945 67.184 85.281 66.88C85.633 66.56 86.249 66.4 87.129 66.4C88.009 66.4 88.617 66.56 88.953 66.88C89.289 67.184 89.457 67.664 89.457 68.32C89.457 68.976 89.281 69.464 88.929 69.784C88.593 70.088 87.993 70.24 87.129 70.24ZM90.9694 64.216C90.9694 62.104 91.4334 60.576 92.3614 59.632C93.3054 58.688 94.7694 58.216 96.7534 58.216C98.7534 58.216 100.209 58.68 101.121 59.608C102.033 60.536 102.489 62.064 102.489 64.192C102.489 66.304 102.041 67.84 101.145 68.8C100.265 69.76 98.8094 70.24 96.7774 70.24C94.7614 70.24 93.2894 69.76 92.3614 68.8C91.4334 67.84 90.9694 66.312 90.9694 64.216ZM97.3774 62.176C97.2974 61.888 97.0894 61.744 96.7534 61.744C96.4174 61.744 96.2014 61.888 96.1054 62.176C96.0254 62.448 95.9854 63.04 95.9854 63.952V64.528C95.9854 65.552 96.0254 66.216 96.1054 66.52C96.2014 66.808 96.4174 66.952 96.7534 66.952C97.0894 66.952 97.2974 66.808 97.3774 66.52C97.4734 66.216 97.5214 65.592 97.5214 64.648V63.976C97.5214 63.048 97.4734 62.448 97.3774 62.176ZM108.556 63.568V70H103.612V58.504H107.884L108.028 59.272H108.124C108.508 58.92 108.948 58.68 109.444 58.552C109.94 58.408 110.668 58.336 111.628 58.336L111.484 62.32H109.852C109.372 62.32 109.036 62.408 108.844 62.584C108.652 62.76 108.556 63.088 108.556 63.568ZM117.698 58.216H124.226V61.144H122.45V61.24C122.946 61.624 123.194 62.192 123.194 62.944C123.194 65.456 121.578 66.712 118.346 66.712H116.834C116.706 66.712 116.642 66.784 116.642 66.928C116.642 67.072 116.706 67.144 116.834 67.144H120.65C122.698 67.144 123.722 67.976 123.722 69.64C123.722 72.232 121.698 73.528 117.65 73.528C116.018 73.528 114.754 73.344 113.858 72.976C112.962 72.608 112.514 71.944 112.514 70.984C112.514 70.456 112.794 70.064 113.354 69.808V69.712C112.618 69.328 112.25 68.688 112.25 67.792C112.25 66.896 112.858 66.2 114.074 65.704C112.954 64.904 112.394 63.8 112.394 62.392C112.394 60.968 112.858 59.92 113.786 59.248C114.714 58.56 116.018 58.216 117.698 58.216ZM117.914 61.888C117.498 61.888 117.29 62.288 117.29 63.088C117.29 63.888 117.514 64.288 117.962 64.288C118.378 64.288 118.586 63.896 118.586 63.112C118.586 62.68 118.538 62.368 118.442 62.176C118.346 61.984 118.17 61.888 117.914 61.888ZM116.642 70.696H119.378C119.522 70.696 119.594 70.64 119.594 70.528V70.384C119.594 70.272 119.522 70.216 119.378 70.216H116.642C116.53 70.216 116.474 70.272 116.474 70.384V70.528C116.474 70.64 116.53 70.696 116.642 70.696Z" fill="white"/>
</svg>
